<svg width="96" height="96" xmlns="http://www.w3.org/2000/svg" xmlns:xlink="http://www.w3.org/1999/xlink" xml:space="preserve" overflow="hidden"><defs><clipPath id="clip0"><rect x="200" y="191" width="96" height="96"/></clipPath></defs><g clip-path="url(#clip0)" transform="translate(-200 -191)"><path d="M246.507 271.2C246.84 271.198 247.165 271.101 247.443 270.919L255.832 264.832C256.911 266.003 258.109 265.532 259.069 264.822L273.669 254.622 261.449 242.402 251.328 256.645C250.602 257.617 250.144 258.752 251.303 259.911L247.303 265.458C247.131 265.368 246.95 265.296 246.764 265.241 237.764 262.883 221.242 253.117 216.757 248.786L216.057 248.105 217.024 247.943C222.284 247.063 226.481 246.743 229.554 246.51 234.554 246.13 236.986 245.836 237.801 243.319 238.565 240.961 236.801 239.213 235.081 237.759 225.64 229.784 207.217 219.743 206.441 219.321 206.002 219.079 205.508 218.952 205.006 218.953 203.349 218.948 202.002 220.287 201.997 221.944 201.994 223.05 202.599 224.068 203.572 224.593 204.182 224.927 218.622 232.864 227.897 239.747L228.955 240.533 227.641 240.633C224.488 240.881 220.625 241.243 215.873 242.046 210.627 242.93 209.724 245.72 209.652 247.306 209.537 249.975 211.229 254.054 225.446 262 231.46 265.413 237.738 268.339 244.22 270.75 244.844 270.948 245.486 271.086 246.137 271.162Z" fill="#FFFFFF"/><path d="M263.842 239.457 276.692 252.306 294.001 236.997 294.001 206 263.842 239.457Z" fill="#FFFFFF"/></g></svg>