<svg width="96" height="96" xmlns="http://www.w3.org/2000/svg" xmlns:xlink="http://www.w3.org/1999/xlink" xml:space="preserve" overflow="hidden"><defs><clipPath id="clip0"><rect x="386" y="178" width="96" height="96"/></clipPath></defs><g clip-path="url(#clip0)" transform="translate(-386 -178)"><path d="M432.507 258.2C432.84 258.198 433.164 258.101 433.443 257.919L441.832 251.832C442.911 253.003 444.109 252.532 445.069 251.822L459.669 241.622 447.449 229.402 437.328 243.645C436.602 244.617 436.144 245.752 437.303 246.911L433.303 252.458C433.131 252.368 432.95 252.296 432.764 252.241 423.764 249.883 407.242 240.117 402.757 235.786L402.057 235.105 403.024 234.943C408.284 234.063 412.481 233.743 415.554 233.51 420.554 233.13 422.986 232.836 423.801 230.319 424.565 227.961 422.801 226.213 421.081 224.759 411.64 216.784 393.217 206.743 392.441 206.321 392.002 206.079 391.508 205.952 391.006 205.953 389.349 205.948 388.002 207.287 387.997 208.944 387.994 210.05 388.599 211.068 389.572 211.593 390.182 211.927 404.622 219.864 413.897 226.747L414.955 227.533 413.641 227.633C410.488 227.881 406.625 228.243 401.873 229.046 396.627 229.93 395.724 232.72 395.652 234.306 395.537 236.975 397.229 241.054 411.446 249 417.46 252.413 423.738 255.339 430.22 257.75 430.844 257.948 431.486 258.086 432.137 258.162Z" fill="#C00000"/><path d="M449.842 226.457 462.692 239.306 480.001 223.997 480.001 193 449.842 226.457Z" fill="#C00000"/></g></svg>